<svg version="1.1" preserveAspectRatio="none" xmlns="http://www.w3.org/2000/svg" width="500" height="500" viewBox="0 0 500 500"><rect width="100%" height="100%" fill="#1C1C1C" fill-opacity="1"/><svg viewBox="165.9035 258.8337 390.0371 347.5787" width="333" height="296.7505068107624" x="83.5px" y="101.6247px" xmlns="http://www.w3.org/2000/svg" xmlns:xlink="http://www.w3.org/1999/xlink" preserveAspectRatio="none"><defs></defs><style>.companyName {fill:#EDEDED;fill-opacity:1;}.icon1 {fill:#EDEDED;fill-opacity:1;}.icon2 {fill:#F35F40;fill-opacity:1;}.icon3 {fill:#B2B2B1;fill-opacity:1;}.icon3-str {stroke:#B2B2B1;stroke-opacity:1;}</style><g opacity="1" transform="rotate(0 263.4128 258.8337)">
<svg width="195.0186" height="227.5787" x="263.4128" y="258.8337" version="1.1" preserveAspectRatio="none" viewBox="10.903996467590332 6.177999496459961 76.97100067138672 89.8219985961914">
  <g transform="matrix(1 0 0 1 0 0)" class="icon1"><path d="M87.875,57.707c0.002-5.572-3.281-10.405-8.413-12.458c2.181-5.078,1.091-10.817-2.849-14.76  c-3.938-3.941-9.679-5.036-14.757-2.86c-1.628-4.079-5.016-6.986-9.135-8.011c0.473-1.877,1.88-8.424-0.542-11.638  c-0.9-1.195-2.218-1.802-3.915-1.802c-1.994,0-3.438,0.975-4.177,2.818c-1.075,2.682-0.576,7.01,0.505,11.082  c-3.437,1.296-6.216,3.969-7.645,7.542c-5.077-2.18-10.819-1.091-14.76,2.849c-3.942,3.938-5.037,9.678-2.86,14.757  c-5.133,2.05-8.42,6.88-8.423,12.452c-0.002,5.572,3.282,10.405,8.413,12.458c-2.181,5.078-1.09,10.818,2.85,14.76  c3.939,3.943,9.681,4.947,14.757,2.771C38.973,92.8,43.803,96,49.375,96c0.002,0,0.004,0,0.006,0c5.569,0,10.4-3.194,12.452-8.324  c5.077,2.181,10.817,1.135,14.76-2.804c3.941-3.938,5.037-9.656,2.86-14.735C84.586,68.088,87.873,63.279,87.875,57.707z   M45.015,9.368c0.591-1.474,1.653-2.19,3.249-2.19c1.385,0,2.404,0.459,3.116,1.403c2.151,2.852,0.783,9.031,0.36,10.728  C50.98,19.179,50.201,19,49.404,19c-0.001,0-0.003,0-0.005,0c-1.325,0-2.605,0.295-3.819,0.647  C44.544,15.808,44.021,11.848,45.015,9.368z M78.611,69.408l-0.522,0.185l0.237,0.501c2.773,5.838,0.558,11.119-2.44,14.115  c-2.998,2.995-8.28,5.204-14.117,2.43l-0.5-0.238l-0.186,0.433C58.916,92.921,53.617,95,49.38,95c-0.001,0-0.003,0-0.004,0  c-4.238,0-9.537-2.084-11.701-8.175l-0.185-0.478l-0.501,0.26c-5.839,2.773-11.12,0.569-14.115-2.429  c-2.996-2.998-5.207-8.275-2.431-14.112l0.238-0.497l-0.521-0.184c-6.089-2.169-8.257-7.469-8.256-11.706  c0.002-4.238,2.174-9.538,8.265-11.702l0.522-0.184l-0.237-0.501c-2.773-5.838-0.558-11.119,2.44-14.115  c2.997-2.995,8.278-5.205,14.117-2.43l0.5,0.238l0.186-0.521c1.428-4.012,4.216-6.313,7.164-7.422  c0.853,2.934,1.973,5.647,2.98,7.405c-0.989,0.549-1.667,1.592-1.667,2.801c0,1.773,1.442,3.217,3.216,3.217  s3.217-1.443,3.217-3.217s-1.443-3.216-3.217-3.216c-0.198,0-0.389,0.024-0.577,0.058c-0.483-0.848-1.025-1.89-1.56-3.224  C47.297,24.879,47.342,25,47.39,25c0.03,0,0.061,0,0.09,0c0.271,0,0.46-0.42,0.41-0.69c-0.05-0.271-0.31-0.515-0.58-0.465  c-0.149,0.028-0.266,0.095-0.338,0.218c-0.395-1.038-0.778-2.279-1.12-3.44C47.056,20.279,48.266,20,49.399,20  c0.002,0,0.004,0,0.005,0c4.238,0,9.537,2.277,11.701,8.367l0.185,0.574l0.501-0.211c5.838-2.773,11.12-0.545,14.115,2.453  s5.207,8.288,2.43,14.124l-0.238,0.503l0.521,0.187c6.09,2.169,8.258,7.471,8.256,11.709S84.701,67.244,78.611,69.408z   M49.044,30.127c0.098,0.093,0.222,0.139,0.346,0.139c0.132,0,0.264-0.052,0.361-0.154c0.191-0.2,0.184-0.517-0.016-0.707  c-0.097-0.093-0.205-0.222-0.317-0.37c1.209,0.016,2.188,1.001,2.188,2.213c0,1.223-0.994,2.217-2.217,2.217  c-1.222,0-2.216-0.994-2.216-2.217c0-0.851,0.488-1.583,1.194-1.954C48.606,29.642,48.834,29.927,49.044,30.127z"></path><path d="M38.28,32.06c-0.091-0.1-0.141-0.22-0.141-0.35c0-0.141,0.05-0.26,0.15-0.36c0.18-0.18,0.52-0.18,0.7,0  c0.1,0.101,0.149,0.22,0.149,0.36c0,0.13-0.05,0.25-0.14,0.35c-0.101,0.09-0.23,0.15-0.36,0.15S38.38,32.149,38.28,32.06z   M58.2,28.7c0.109,0,0.22-0.04,0.319-0.11c0.21-0.18,0.24-0.49,0.07-0.7c-0.18-0.22-0.49-0.25-0.7-0.07  c-0.22,0.171-0.25,0.49-0.08,0.7C57.91,28.64,58.06,28.7,58.2,28.7z M56.47,27.16c0.1,0.069,0.21,0.109,0.32,0.109  c0.149,0,0.29-0.06,0.39-0.17c0.18-0.21,0.15-0.53-0.06-0.71s-0.53-0.149-0.7,0.061c-0.18,0.21-0.16,0.52,0.05,0.699V27.16z   M51.479,23.79c-0.279-0.05-0.54,0.14-0.58,0.41c-0.05,0.27,0.131,0.529,0.41,0.569c0.03,0.011,0.05,0.011,0.08,0.011  c0.24,0,0.45-0.171,0.49-0.41C51.93,24.1,51.75,23.84,51.479,23.79z M59.33,30.359c0.08,0,0.16-0.02,0.239-0.06  c0.24-0.13,0.33-0.44,0.19-0.68c-0.13-0.24-0.44-0.33-0.68-0.19c-0.24,0.13-0.33,0.43-0.19,0.67  C58.979,30.27,59.149,30.359,59.33,30.359z M49.39,23.609c-0.27,0-0.49,0.23-0.49,0.5c0,0.28,0.221,0.5,0.49,0.5  c0.28,0,0.5-0.22,0.5-0.5C49.89,23.84,49.67,23.609,49.39,23.609z M45.46,25.29c0.05,0,0.109-0.01,0.16-0.03  c0.26-0.09,0.399-0.38,0.31-0.64c-0.1-0.261-0.38-0.391-0.64-0.301c-0.26,0.091-0.4,0.381-0.311,0.641  C45.06,25.16,45.25,25.29,45.46,25.29z M41.99,27.28c0.119,0,0.229-0.04,0.319-0.12c0.21-0.181,0.24-0.49,0.061-0.7  c-0.17-0.21-0.49-0.24-0.7-0.061c-0.21,0.181-0.24,0.49-0.061,0.7C41.71,27.22,41.85,27.28,41.99,27.28z M40.59,28.71  c0.14,0,0.29-0.061,0.39-0.18c0.17-0.221,0.141-0.53-0.08-0.711c-0.21-0.17-0.529-0.14-0.699,0.07c0,0.01,0,0.01,0,0.01  c-0.181,0.21-0.141,0.521,0.069,0.7C40.37,28.67,40.479,28.71,40.59,28.71z M39.22,30.31c0.08,0.04,0.16,0.061,0.24,0.061  c0.18,0,0.35-0.09,0.439-0.25v-0.011c0.131-0.239,0.051-0.54-0.189-0.67c-0.24-0.14-0.55-0.05-0.68,0.19  C38.89,29.87,38.979,30.17,39.22,30.31z M43.63,26.13c0.09,0,0.17-0.021,0.25-0.07c0.24-0.13,0.33-0.439,0.189-0.68  c-0.14-0.24-0.449-0.32-0.68-0.19c-0.25,0.141-0.33,0.45-0.189,0.69C43.29,26.04,43.46,26.13,43.63,26.13z M53.17,25.26  c0.05,0.021,0.11,0.03,0.16,0.03c0.21,0,0.399-0.13,0.47-0.33c0.09-0.271-0.04-0.55-0.3-0.641c-0.26-0.1-0.55,0.04-0.641,0.301  C52.77,24.88,52.899,25.17,53.17,25.26z M54.91,26.06h-0.011c0.08,0.04,0.17,0.061,0.25,0.061c0.181,0,0.351-0.09,0.44-0.25  c0.14-0.24,0.05-0.54-0.19-0.681c-0.239-0.14-0.54-0.05-0.68,0.19C54.58,25.609,54.67,25.92,54.91,26.06z M59.66,31.72  c0,0.12,0.05,0.25,0.149,0.35c0.101,0.091,0.221,0.15,0.351,0.15s0.26-0.06,0.359-0.16c0.09-0.09,0.141-0.22,0.141-0.34  c0-0.13-0.051-0.26-0.15-0.36c-0.19-0.18-0.5-0.189-0.71,0C59.71,31.46,59.66,31.59,59.66,31.72z M76.99,41.02  c0,0.003-0.001,0.005-0.001,0.008c0,0.001,0.001,0.002,0.001,0.003C76.99,41.03,76.99,41.03,76.99,41.02z M76.45,40.569  c-0.28,0.021-0.48,0.261-0.46,0.54c0.02,0.261,0.239,0.46,0.5,0.46c0.01,0,0.029,0,0.04,0c0.267-0.029,0.474-0.265,0.459-0.542  C76.957,40.749,76.719,40.55,76.45,40.569z M75.66,39.229c0.06,0.221,0.26,0.37,0.479,0.37c0.04,0,0.09-0.01,0.13-0.02  c0.271-0.08,0.42-0.351,0.351-0.62c-0.07-0.26-0.351-0.42-0.61-0.351C75.74,38.68,75.58,38.96,75.66,39.229z M61.91,30.52  c-0.271,0.08-0.42,0.351-0.351,0.62c0.061,0.22,0.26,0.36,0.48,0.36c0.05,0,0.1,0,0.14-0.021c0.271-0.069,0.42-0.35,0.34-0.609  C62.45,30.6,62.17,30.439,61.91,30.52z M63.96,30.12c-0.271,0.029-0.47,0.279-0.45,0.55c0.03,0.26,0.25,0.45,0.5,0.45  c0.021,0,0.04,0,0.05,0c0.28-0.03,0.48-0.271,0.45-0.551C64.479,30.3,64.24,30.1,63.96,30.12z M66.06,30.1  c-0.279-0.02-0.52,0.19-0.54,0.46c-0.029,0.28,0.181,0.521,0.45,0.54h0.01c0.011,0,0.021,0,0.04,0c0.25,0,0.471-0.2,0.49-0.45  C66.54,30.37,66.33,30.13,66.06,30.1z M75.439,37.72c0.07,0,0.15-0.02,0.221-0.05c0.239-0.12,0.35-0.42,0.239-0.67  c-0.01,0-0.01,0-0.01,0c-0.12-0.25-0.41-0.351-0.66-0.24c-0.25,0.12-0.359,0.42-0.239,0.67C75.069,37.609,75.26,37.72,75.439,37.72z   M70.09,31.189c0,0.011,0,0.011,0,0.011c-0.25-0.12-0.55-0.021-0.67,0.229s-0.01,0.55,0.24,0.67c0.069,0.03,0.14,0.05,0.21,0.05  c0.189,0,0.37-0.109,0.449-0.29C70.439,31.609,70.34,31.31,70.09,31.189z M76.42,43.569c0.02,0,0.03,0,0.05,0  c0.25,0,0.47-0.189,0.5-0.449c0.03-0.271-0.18-0.521-0.45-0.54c-0.279-0.03-0.52,0.17-0.55,0.439  C75.939,43.3,76.14,43.54,76.42,43.569z M71.189,32.37c-0.159,0.229-0.1,0.54,0.12,0.699c0.09,0.061,0.19,0.091,0.29,0.091  c0.16,0,0.311-0.07,0.41-0.21c0.16-0.23,0.11-0.54-0.12-0.7C71.67,32.09,71.35,32.149,71.189,32.37z M72.78,33.6  c-0.19,0.19-0.19,0.51,0,0.71c0.1,0.09,0.229,0.141,0.35,0.141c0.13,0,0.26-0.051,0.36-0.141c0.189-0.2,0.189-0.52,0-0.71  C73.29,33.399,72.979,33.399,72.78,33.6z M74.43,35.979c0.101,0,0.2-0.02,0.29-0.08c0.22-0.159,0.271-0.479,0.12-0.699  c-0.16-0.23-0.48-0.28-0.7-0.12c-0.229,0.16-0.28,0.47-0.12,0.689C74.12,35.91,74.27,35.979,74.43,35.979z M68.12,30.47  c-0.261-0.08-0.54,0.08-0.61,0.35c-0.07,0.271,0.09,0.54,0.35,0.61c0.04,0.01,0.091,0.021,0.131,0.021c0.22,0,0.42-0.15,0.479-0.37  C68.55,30.81,68.39,30.54,68.12,30.47z M75.609,44.899c-0.069,0.271,0.08,0.551,0.351,0.62c0.04,0.021,0.09,0.021,0.13,0.021  c0.22,0,0.42-0.141,0.479-0.36c0.08-0.27-0.069-0.54-0.34-0.62C75.96,44.479,75.689,44.64,75.609,44.899z M75.02,46.59  c-0.09,0.09-0.14,0.22-0.14,0.35s0.05,0.261,0.15,0.36c0.09,0.09,0.22,0.14,0.35,0.14c0.12,0,0.25-0.05,0.35-0.149  c0.09-0.09,0.15-0.221,0.15-0.351s-0.05-0.25-0.15-0.35C75.54,46.399,75.22,46.399,75.02,46.59z M82.96,57.2  c-0.271,0-0.49,0.22-0.49,0.5c0,0.27,0.22,0.5,0.49,0.5c0.28,0,0.5-0.23,0.5-0.5C83.46,57.42,83.24,57.2,82.96,57.2z M76.77,47.52  c-0.13,0.25-0.04,0.55,0.2,0.681c0.07,0.05,0.16,0.069,0.24,0.069c0.18,0,0.35-0.09,0.439-0.26c0.131-0.24,0.04-0.55-0.199-0.68  C77.21,47.2,76.91,47.28,76.77,47.52z M82.3,55.79c-0.001-0.003,0.001-0.006,0-0.009c0,0,0,0,0-0.001V55.79z M81.819,53.93  c0.07,0.2,0.261,0.33,0.471,0.33c0.05,0,0.109-0.01,0.17-0.03c0.26-0.09,0.39-0.38,0.3-0.64s-0.38-0.4-0.64-0.3  C81.859,53.38,81.72,53.67,81.819,53.93z M81.45,52.439c0.09,0,0.17-0.02,0.25-0.069c0.239-0.141,0.319-0.44,0.189-0.681  c-0.14-0.239-0.45-0.319-0.689-0.189c-0.24,0.14-0.32,0.45-0.181,0.689C81.109,52.35,81.28,52.439,81.45,52.439z M82.46,61.16  c-0.26-0.091-0.55,0.05-0.641,0.31c-0.09,0.26,0.04,0.54,0.301,0.64c0.06,0.021,0.109,0.03,0.17,0.03c0.2,0,0.399-0.13,0.47-0.34  C82.85,61.54,82.72,61.26,82.46,61.16z M80.3,50.79c0.12,0,0.23-0.03,0.32-0.12c0.22-0.17,0.239-0.49,0.06-0.7s-0.49-0.229-0.7-0.06  c-0.21,0.18-0.239,0.5-0.06,0.71C80.02,50.729,80.16,50.79,80.3,50.79z M82.88,59.2c-0.271-0.04-0.53,0.14-0.58,0.409  c-0.04,0.271,0.14,0.53,0.41,0.58c0.03,0,0.06,0.011,0.08,0.011c0.24,0,0.46-0.181,0.5-0.42C83.33,59.51,83.149,59.25,82.88,59.2z   M81.7,63.02c-0.24-0.13-0.54-0.05-0.681,0.19c-0.14,0.24-0.06,0.54,0.181,0.68c0.08,0.05,0.17,0.07,0.25,0.07  c0.17,0,0.34-0.09,0.439-0.25C82.02,63.47,81.939,63.16,81.7,63.02z M78.56,66.12c-0.22,0.17-0.25,0.489-0.069,0.699  C78.58,66.939,78.729,67,78.87,67c0.109,0,0.229-0.03,0.319-0.11c0.21-0.17,0.24-0.49,0.07-0.7S78.77,65.939,78.56,66.12z   M79.92,64.78c-0.18,0.21-0.15,0.52,0.06,0.699c0.09,0.08,0.21,0.12,0.32,0.12c0.14,0,0.29-0.06,0.39-0.18  c0.17-0.21,0.15-0.521-0.06-0.7S80.1,64.56,79.92,64.78z M76.97,67.189c-0.24,0.141-0.33,0.44-0.189,0.681  c0.09,0.17,0.26,0.26,0.439,0.26c0.08,0,0.16-0.021,0.24-0.061c0.24-0.14,0.32-0.439,0.189-0.68  C77.52,67.149,77.21,67.06,76.97,67.189z M78.479,48.569c-0.17,0.221-0.14,0.53,0.08,0.711c0.09,0.069,0.2,0.109,0.311,0.109  c0.149,0,0.29-0.06,0.39-0.18c0.17-0.22,0.14-0.53-0.07-0.71C78.97,48.33,78.66,48.359,78.479,48.569z M82.3,55.781  c0.04,0.25,0.26,0.419,0.5,0.419c0.02,0,0.05,0,0.08-0.011c0.27-0.04,0.45-0.3,0.41-0.569c-0.05-0.28-0.311-0.46-0.58-0.41  C82.443,55.25,82.256,55.504,82.3,55.781z M75.01,68.819c0.1,0.091,0.22,0.141,0.36,0.141c0.13,0,0.26-0.05,0.35-0.141  c0.09-0.1,0.15-0.22,0.15-0.359c0-0.13-0.061-0.26-0.15-0.36c-0.189-0.17-0.51-0.18-0.71,0.01c-0.09,0.091-0.14,0.221-0.14,0.351  C74.87,68.6,74.92,68.72,75.01,68.819z M62.17,83.92c-0.26-0.08-0.54,0.07-0.62,0.34c-0.07,0.26,0.08,0.54,0.35,0.62  c0.04,0.01,0.091,0.02,0.131,0.02c0.22,0,0.42-0.149,0.489-0.369C62.59,84.27,62.439,83.99,62.17,83.92z M76.46,72.819  c0.01,0,0.03-0.01,0.05-0.01c0.271-0.029,0.47-0.27,0.44-0.54c-0.021-0.279-0.271-0.479-0.54-0.45c-0.28,0.03-0.48,0.271-0.45,0.54  C75.979,72.62,76.2,72.819,76.46,72.819z M67.85,83.96c-0.27,0.07-0.42,0.35-0.35,0.609c0.06,0.221,0.26,0.37,0.479,0.37  c0.051,0,0.09,0,0.13-0.02c0.271-0.07,0.431-0.34,0.351-0.61C68.39,84.04,68.12,83.89,67.85,83.96z M65.97,84.29  c-0.28,0.02-0.479,0.27-0.46,0.54c0.021,0.26,0.24,0.46,0.5,0.46c0.01,0,0.03,0,0.04,0c0.28-0.03,0.48-0.271,0.46-0.54  C66.479,84.47,66.24,84.27,65.97,84.29z M76.08,70.85c0.05,0,0.09-0.01,0.14-0.02c0.26-0.08,0.42-0.351,0.34-0.62  c-0.08-0.271-0.35-0.42-0.62-0.34c-0.26,0.069-0.42,0.35-0.34,0.609C75.66,70.7,75.859,70.85,76.08,70.85z M64.05,84.27v0.011  c-0.27-0.03-0.52,0.17-0.54,0.439c-0.03,0.28,0.17,0.521,0.45,0.55c0.01,0,0.03,0,0.04,0c0.26,0,0.47-0.189,0.5-0.45  C64.53,84.55,64.33,84.3,64.05,84.27z M69.649,83.29c-0.25,0.12-0.359,0.42-0.239,0.67c0.08,0.18,0.26,0.29,0.449,0.29  c0.07,0,0.15-0.021,0.221-0.05c0.25-0.12,0.35-0.42,0.229-0.67S69.899,83.18,69.649,83.29z M74.01,79.62  c-0.16,0.22-0.11,0.529,0.12,0.689c0.08,0.061,0.18,0.09,0.29,0.09c0.149,0,0.31-0.069,0.399-0.21c0.16-0.22,0.11-0.529-0.109-0.689  C74.479,79.34,74.17,79.39,74.01,79.62z M75.649,77.72c-0.25-0.12-0.55-0.01-0.67,0.24s-0.01,0.55,0.24,0.67  c0.061,0.03,0.14,0.04,0.21,0.04c0.19,0,0.37-0.101,0.45-0.28C76,78.14,75.899,77.84,75.649,77.72z M76.52,73.819  C76.24,73.8,76,74,75.979,74.28c-0.029,0.27,0.181,0.52,0.45,0.539c0.021,0,0.03,0,0.04,0c0.26,0,0.48-0.199,0.5-0.46  C76.99,74.09,76.79,73.84,76.52,73.819z M76.26,75.81c-0.27-0.069-0.54,0.09-0.62,0.351c-0.07,0.27,0.09,0.54,0.36,0.62  c0.04,0.01,0.08,0.02,0.13,0.02c0.22,0,0.42-0.15,0.479-0.37C76.68,76.16,76.52,75.88,76.26,75.81z M71.3,82.319  c-0.22,0.16-0.28,0.471-0.12,0.7c0.101,0.141,0.26,0.21,0.41,0.21c0.1,0,0.2-0.029,0.29-0.09c0.229-0.16,0.28-0.47,0.12-0.7  C71.84,82.22,71.53,82.16,71.3,82.319z M72.77,81.08c-0.189,0.2-0.189,0.52,0,0.71c0.101,0.1,0.23,0.149,0.351,0.149  c0.13,0,0.26-0.05,0.359-0.149c0.19-0.19,0.19-0.51,0-0.71C73.28,80.89,72.97,80.89,72.77,81.08z M59.78,83.33  c-0.091,0.09-0.141,0.22-0.141,0.35s0.05,0.25,0.15,0.351c0.09,0.09,0.22,0.149,0.35,0.149s0.26-0.06,0.36-0.149  c0.09-0.101,0.14-0.23,0.14-0.351c0-0.13-0.05-0.26-0.14-0.36C60.31,83.14,59.979,83.14,59.78,83.33z M59.56,85.08  c-0.24-0.141-0.55-0.05-0.68,0.189c-0.14,0.24-0.05,0.54,0.189,0.681c0.08,0.04,0.16,0.06,0.24,0.06c0.181,0,0.351-0.09,0.44-0.25  C59.89,85.51,59.8,85.21,59.56,85.08z M49.38,90.77c-0.271,0-0.5,0.221-0.5,0.5c0,0.271,0.229,0.5,0.5,0.5c0.28,0,0.5-0.229,0.5-0.5  C49.88,90.99,49.66,90.77,49.38,90.77z M45.609,90.12c-0.26-0.09-0.54,0.04-0.63,0.31c-0.1,0.26,0.04,0.54,0.301,0.63  c0.05,0.021,0.109,0.03,0.159,0.03c0.21,0,0.4-0.12,0.48-0.33C46.01,90.5,45.87,90.21,45.609,90.12z M47.47,90.6  c-0.27-0.04-0.53,0.141-0.58,0.41c-0.05,0.271,0.141,0.53,0.41,0.58c0.03,0.01,0.06,0.01,0.08,0.01c0.24,0,0.45-0.17,0.5-0.42  C47.92,90.91,47.74,90.649,47.47,90.6z M51.3,90.6c-0.28,0.05-0.46,0.311-0.41,0.58c0.04,0.25,0.25,0.42,0.49,0.42  c0.03,0,0.06-0.01,0.09-0.01c0.271-0.05,0.45-0.31,0.4-0.58C51.83,90.74,51.569,90.56,51.3,90.6z M53.16,90.12h-0.011  c-0.26,0.09-0.39,0.38-0.3,0.64c0.07,0.2,0.271,0.33,0.47,0.33c0.061,0,0.12-0.01,0.171-0.03c0.26-0.09,0.39-0.38,0.3-0.64  S53.42,90.02,53.16,90.12z M54.899,89.319C54.66,89.46,54.569,89.76,54.71,90c0.09,0.16,0.26,0.25,0.43,0.25  c0.09,0,0.17-0.021,0.25-0.061c0.24-0.14,0.32-0.449,0.19-0.689C55.439,89.26,55.13,89.18,54.899,89.319z M56.46,88.22  c-0.21,0.18-0.23,0.5-0.061,0.71c0.101,0.11,0.24,0.17,0.391,0.17c0.109,0,0.229-0.04,0.319-0.12c0.21-0.18,0.24-0.489,0.061-0.699  C56.99,88.069,56.67,88.04,56.46,88.22z M40.26,86.79c-0.22,0.18-0.25,0.49-0.07,0.71c0-0.01,0-0.01,0-0.01  c0.101,0.13,0.24,0.189,0.391,0.189c0.109,0,0.22-0.04,0.31-0.11c0.22-0.18,0.25-0.489,0.07-0.71  C40.79,86.649,40.47,86.62,40.26,86.79z M39.21,85.08c-0.24,0.13-0.33,0.439-0.2,0.68c0.1,0.17,0.271,0.26,0.44,0.26  c0.08,0,0.17-0.02,0.239-0.06c0.24-0.141,0.33-0.44,0.2-0.68C39.75,85.03,39.45,84.95,39.21,85.08z M57.8,86.85  c-0.17,0.22-0.14,0.54,0.07,0.71c0.1,0.07,0.21,0.11,0.319,0.11c0.141,0,0.29-0.061,0.391-0.18c0.17-0.221,0.14-0.53-0.07-0.71  C58.29,86.609,57.979,86.64,57.8,86.85z M43.87,89.319c-0.24-0.13-0.54-0.05-0.681,0.19c-0.14,0.24-0.06,0.54,0.181,0.68  c0.08,0.04,0.17,0.07,0.25,0.07c0.18,0,0.34-0.09,0.439-0.25C44.189,89.76,44.109,89.46,43.87,89.319z M41.6,88.28  c-0.18,0.21-0.149,0.529,0.061,0.71c0.09,0.079,0.21,0.119,0.319,0.119c0.141,0,0.28-0.06,0.38-0.18c0.181-0.21,0.15-0.53-0.06-0.7  C42.09,88.05,41.77,88.069,41.6,88.28z M39.12,83.67c0-0.13-0.051-0.26-0.15-0.351c-0.18-0.189-0.52-0.189-0.71,0  c-0.09,0.091-0.14,0.211-0.14,0.351c0,0.13,0.05,0.26,0.149,0.36c0.09,0.09,0.221,0.14,0.351,0.14s0.25-0.05,0.359-0.15  C39.069,83.93,39.12,83.8,39.12,83.67z M25.29,81.08c-0.2,0.189-0.2,0.51,0,0.7c0.1,0.1,0.22,0.149,0.35,0.149s0.26-0.05,0.36-0.149  c0.189-0.19,0.189-0.511,0-0.7C25.8,80.88,25.479,80.88,25.29,81.08z M26.77,82.43c-0.16,0.23-0.109,0.54,0.12,0.7  c0.08,0.06,0.18,0.09,0.28,0.09c0.16,0,0.32-0.07,0.41-0.21c0.16-0.22,0.109-0.54-0.12-0.7C27.24,82.149,26.93,82.21,26.77,82.43z   M22.33,74.81c0.27-0.02,0.479-0.26,0.46-0.54c-0.03-0.27-0.271-0.47-0.55-0.45c-0.271,0.021-0.48,0.261-0.45,0.54  c0.02,0.261,0.24,0.46,0.5,0.46C22.3,74.819,22.31,74.819,22.33,74.81z M24.06,79.49c-0.229,0.159-0.279,0.47-0.12,0.699  c0.101,0.13,0.25,0.21,0.41,0.21c0.101,0,0.2-0.029,0.29-0.09c0.22-0.16,0.28-0.479,0.12-0.7C24.6,79.38,24.28,79.33,24.06,79.49z   M23.12,76.16c-0.08-0.271-0.351-0.42-0.62-0.351c-0.26,0.07-0.42,0.34-0.351,0.61c0.061,0.22,0.271,0.37,0.49,0.37  c0.04,0,0.08-0.01,0.13-0.021C23.03,76.7,23.189,76.42,23.12,76.16z M30.92,83.95c-0.271-0.07-0.54,0.08-0.61,0.35  c-0.08,0.26,0.08,0.54,0.351,0.61c0.04,0.01,0.08,0.02,0.13,0.02c0.22,0,0.42-0.149,0.479-0.37C31.34,84.29,31.18,84.02,30.92,83.95  z M23.12,77.72c-0.25,0.11-0.36,0.41-0.24,0.67c0.09,0.17,0.27,0.28,0.45,0.28c0.08,0,0.149-0.021,0.22-0.05  c0.25-0.12,0.35-0.42,0.23-0.67C23.67,77.7,23.37,77.6,23.12,77.72z M29.12,83.28c-0.25-0.12-0.551-0.011-0.67,0.239  c-0.12,0.25-0.011,0.55,0.239,0.67c0.07,0.03,0.141,0.04,0.221,0.04c0.18,0,0.359-0.1,0.449-0.279  C29.47,83.7,29.37,83.399,29.12,83.28z M34.72,84.26c-0.28,0.03-0.479,0.271-0.45,0.55c0.021,0.26,0.24,0.45,0.5,0.45  c0.011,0,0.03,0,0.05,0c0.271-0.03,0.471-0.28,0.44-0.55C35.24,84.439,34.99,84.229,34.72,84.26z M21.81,72.26  c-0.01,0-0.01,0-0.01,0c-0.02,0.271,0.18,0.521,0.45,0.55c0.02,0,0.03,0,0.05,0c0.26,0,0.47-0.189,0.5-0.45  c0.03-0.27-0.17-0.52-0.45-0.55C22.08,71.79,21.83,71.99,21.81,72.26z M36.6,83.899c-0.27,0.08-0.42,0.351-0.34,0.62  c0.06,0.221,0.26,0.36,0.48,0.36c0.04,0,0.09,0,0.13-0.021c0.27-0.069,0.42-0.35,0.35-0.609C37.14,83.979,36.859,83.83,36.6,83.899z   M32.8,84.28c-0.27-0.021-0.51,0.18-0.54,0.46c-0.02,0.27,0.18,0.51,0.46,0.54c0.271,0.02,0.521-0.19,0.54-0.461  C33.28,84.54,33.08,84.3,32.8,84.28z M23.16,70.479c0.08-0.26-0.08-0.54-0.341-0.62c-0.26-0.069-0.539,0.08-0.619,0.351  c-0.07,0.26,0.08,0.54,0.34,0.609c0.05,0.021,0.1,0.021,0.14,0.021C22.899,70.84,23.1,70.7,23.16,70.479z M23.76,68.79  c0.09-0.09,0.15-0.221,0.15-0.351c0-0.12-0.061-0.25-0.15-0.35c-0.19-0.19-0.53-0.19-0.71,0c-0.09,0.1-0.15,0.22-0.15,0.35  s0.061,0.261,0.15,0.36c0.09,0.09,0.22,0.14,0.35,0.14C23.54,68.939,23.67,68.89,23.76,68.79z M21.81,67.18  c-0.24-0.13-0.54-0.05-0.68,0.2c-0.13,0.24-0.04,0.54,0.2,0.68c0-0.01,0-0.01,0-0.01c0.069,0.05,0.16,0.07,0.239,0.07  c0.171,0,0.341-0.101,0.44-0.261C22.14,67.62,22.05,67.31,21.81,67.18z M21.56,48.26c0.08,0,0.17-0.03,0.24-0.07  c0.24-0.13,0.33-0.439,0.2-0.68c-0.141-0.24-0.44-0.33-0.69-0.19C21.069,47.45,20.99,47.76,21.12,48  C21.21,48.16,21.38,48.26,21.56,48.26z M18.149,64.71c-0.21,0.17-0.229,0.49-0.05,0.7c0.101,0.12,0.24,0.18,0.38,0.18  c0.11,0,0.23-0.04,0.32-0.12c0.21-0.18,0.24-0.49,0.06-0.71C18.68,64.56,18.359,64.53,18.149,64.71z M19.899,49.38  c0.11,0,0.221-0.04,0.32-0.11v-0.01c0.21-0.17,0.24-0.49,0.07-0.7c-0.181-0.21-0.49-0.24-0.71-0.069  c-0.21,0.18-0.24,0.489-0.07,0.71C19.609,49.319,19.75,49.38,19.899,49.38z M20.22,66.1c-0.21-0.17-0.52-0.14-0.7,0.08  c-0.17,0.21-0.14,0.53,0.07,0.7c0.1,0.08,0.21,0.11,0.32,0.11c0.14,0,0.29-0.061,0.39-0.181c0.17-0.21,0.14-0.529-0.07-0.7  L20.22,66.1z M17.069,52.359c0.08,0.051,0.16,0.07,0.25,0.07c0.171,0,0.341-0.09,0.431-0.26c0.14-0.24,0.06-0.54-0.181-0.68  c-0.239-0.141-0.55-0.051-0.68,0.189C16.75,51.92,16.83,52.22,17.069,52.359z M16.31,57.689c0-0.279-0.22-0.5-0.5-0.5  c-0.279,0-0.5,0.221-0.5,0.5c0,0.271,0.23,0.5,0.5,0.5C16.09,58.189,16.31,57.96,16.31,57.689z M15.899,56.18  c0.021,0.01,0.051,0.01,0.08,0.01c0.24,0,0.45-0.17,0.49-0.42c0.05-0.27-0.14-0.529-0.41-0.569c-0.27-0.051-0.529,0.13-0.569,0.399  C15.439,55.88,15.62,56.14,15.899,56.18z M16.319,54.22c0.051,0.021,0.11,0.03,0.16,0.03c0.21,0,0.4-0.13,0.48-0.33  c0.09-0.271-0.05-0.55-0.311-0.64c-0.26-0.091-0.54,0.039-0.64,0.3C15.92,53.84,16.06,54.13,16.319,54.22z M16.47,59.6  c-0.04-0.27-0.3-0.45-0.57-0.41c-0.27,0.051-0.46,0.311-0.409,0.58c0.04,0.24,0.25,0.41,0.489,0.41c0.03,0,0.061,0,0.09,0  C16.34,60.13,16.52,59.87,16.47,59.6z M17.08,63.01c-0.24,0.14-0.33,0.44-0.19,0.68c0,0.011,0,0.011,0,0.011  c0.101,0.159,0.26,0.25,0.44,0.25c0.08,0,0.17-0.021,0.25-0.07c0.229-0.14,0.319-0.44,0.18-0.68  C17.62,62.96,17.319,62.87,17.08,63.01z M16.96,61.46c-0.09-0.26-0.38-0.4-0.641-0.311c-0.26,0.101-0.39,0.381-0.3,0.641  c0.07,0.21,0.261,0.33,0.471,0.33c0.05,0,0.109-0.011,0.17-0.021C16.92,62,17.05,61.72,16.96,61.46z M18.47,50.78  c0.14,0,0.28-0.061,0.38-0.171c0.181-0.21,0.15-0.529-0.06-0.71c-0.21-0.17-0.521-0.149-0.7,0.061s-0.15,0.53,0.06,0.7  C18.24,50.74,18.35,50.78,18.47,50.78z M23.77,46.569c-0.189-0.189-0.529-0.189-0.71,0c-0.09,0.091-0.149,0.221-0.149,0.351  s0.06,0.26,0.149,0.35c0.09,0.101,0.221,0.15,0.351,0.15s0.26-0.05,0.359-0.15c0.09-0.09,0.141-0.22,0.141-0.35  S23.859,46.66,23.77,46.569z M23.13,37.66c0.07,0.029,0.14,0.05,0.21,0.05c0.19,0,0.37-0.11,0.45-0.29  c0.12-0.25,0.02-0.55-0.23-0.66c-0.25-0.12-0.55-0.02-0.67,0.23S22.88,37.54,23.13,37.66z M22.22,45.18  c0.061,0.22,0.26,0.36,0.48,0.36c0.05,0,0.09-0.01,0.14-0.021c0.26-0.08,0.42-0.35,0.34-0.62c-0.08-0.26-0.35-0.42-0.62-0.34  C22.3,44.63,22.14,44.91,22.22,45.18z M30.649,30.46c-0.26,0.07-0.42,0.34-0.34,0.609c0.05,0.221,0.26,0.37,0.48,0.37  c0.04,0,0.08-0.01,0.13-0.02c0.27-0.07,0.42-0.351,0.35-0.61C31.2,30.54,30.92,30.38,30.649,30.46z M28.689,31.189  c0-0.01,0-0.01,0-0.01c-0.25,0.12-0.35,0.42-0.229,0.67c0.08,0.181,0.26,0.29,0.45,0.29c0.069,0,0.14-0.02,0.21-0.05  c0.25-0.12,0.359-0.42,0.239-0.67C29.24,31.17,28.939,31.06,28.689,31.189z M32.72,30.09c-0.28,0.02-0.479,0.26-0.46,0.54  c0.021,0.26,0.24,0.46,0.5,0.46c0.01,0,0.03,0,0.04,0c0.28-0.03,0.48-0.271,0.46-0.54C33.229,30.27,32.99,30.069,32.72,30.09z   M26.89,32.24c-0.22,0.159-0.28,0.479-0.12,0.699c0.101,0.141,0.25,0.21,0.41,0.21c0.101,0,0.2-0.029,0.29-0.09  c0.22-0.16,0.28-0.47,0.12-0.7C27.43,32.14,27.12,32.08,26.89,32.24z M34.819,30.109c-0.279-0.029-0.529,0.171-0.55,0.45  c-0.029,0.271,0.17,0.521,0.45,0.54c0.01,0,0.03,0,0.05,0c0.25,0,0.46-0.189,0.49-0.45C35.29,30.38,35.09,30.14,34.819,30.109z   M22.27,42.569C22,42.6,21.79,42.84,21.819,43.12c0.03,0.26,0.25,0.449,0.5,0.449c0.021,0,0.03,0,0.051,0  c0.27-0.029,0.479-0.279,0.449-0.55C22.79,42.74,22.54,42.54,22.27,42.569z M36.87,30.5c-0.261-0.07-0.54,0.08-0.62,0.35  c-0.07,0.26,0.08,0.54,0.35,0.61c0.04,0.02,0.09,0.02,0.13,0.02c0.221,0,0.42-0.14,0.49-0.359C37.29,30.85,37.14,30.58,36.87,30.5z   M22.52,39.569c0.04,0.011,0.08,0.021,0.13,0.021c0.221,0,0.42-0.15,0.48-0.37c0.07-0.27-0.09-0.54-0.35-0.62  c-0.271-0.069-0.54,0.09-0.62,0.36C22.09,39.22,22.25,39.5,22.52,39.569z M22.26,41.56c0.01,0,0.03,0,0.04,0  c0.26,0,0.47-0.189,0.5-0.46c0.02-0.27-0.19-0.51-0.46-0.54c-0.28-0.02-0.521,0.19-0.54,0.46C21.78,41.3,21.979,41.54,22.26,41.56z   M25.29,33.59c-0.19,0.2-0.19,0.51,0,0.71c0.1,0.1,0.229,0.14,0.359,0.14c0.12,0,0.25-0.04,0.351-0.14c0.189-0.2,0.189-0.51,0-0.71  C25.81,33.399,25.49,33.399,25.29,33.59z M23.95,35.189c-0.16,0.221-0.11,0.54,0.119,0.7c0.08,0.061,0.181,0.09,0.28,0.09  c0.16,0,0.32-0.08,0.41-0.21c0.16-0.229,0.11-0.54-0.11-0.7C24.42,34.91,24.109,34.96,23.95,35.189z"></path><path d="M40.417,54.651c0.043,0.021,0.09,0.027,0.133,0.046c0.016,0.008,0.026,0.021,0.042,0.028l0.006-0.012  c0.487,0.204,1.001,0.323,1.535,0.323c0.755,0,1.541-0.204,2.312-0.607c1.335-0.699,2.474-1.926,3.206-3.454  c0.732-1.526,0.976-3.183,0.684-4.661c-0.247-1.261-0.872-2.251-1.756-2.894l0.005-0.01c-0.016-0.008-0.034-0.012-0.05-0.019  c-0.178-0.126-0.35-0.26-0.549-0.356c-1.214-0.581-2.644-0.505-4.027,0.222c-1.335,0.699-2.474,1.926-3.206,3.453  C37.216,49.912,37.963,53.475,40.417,54.651z M47.354,46.508c0.25,1.269,0.035,2.702-0.605,4.036c-0.64,1.334-1.622,2.399-2.768,3  c-1.046,0.547-2.102,0.626-2.998,0.248c-1.167-0.618-1.008-2.774,0.443-5.801c0.663-1.384,1.526-2.517,2.432-3.19  c0.579-0.431,1.43-0.858,2.237-0.509C46.721,44.791,47.165,45.55,47.354,46.508z M39.652,47.142c0.64-1.334,1.622-2.398,2.768-2.999  c0.427-0.223,0.855-0.365,1.274-0.436c-0.145,0.087-0.291,0.185-0.435,0.292c-1.032,0.769-2.004,2.032-2.736,3.561  c-0.804,1.678-1.222,3.099-1.295,4.253C38.766,50.494,38.87,48.774,39.652,47.142z"></path><path d="M59.518,69.765c0.731-1.527,0.975-3.183,0.684-4.661c-0.248-1.261-0.872-2.251-1.756-2.894l0.005-0.011  c-0.018-0.009-0.037-0.013-0.055-0.022c-0.177-0.124-0.347-0.258-0.544-0.352c-2.454-1.173-5.699,0.473-7.234,3.675  c-1.534,3.201-0.787,6.764,1.667,7.94c0.042,0.02,0.087,0.026,0.129,0.044c0.017,0.009,0.028,0.022,0.046,0.031l0.006-0.013  c0.486,0.203,0.995,0.317,1.518,0.317C56.076,73.818,58.318,72.266,59.518,69.765z M51.519,65.931  c0.913-1.905,2.496-3.176,4.036-3.436c-1.161,0.697-2.291,2.029-3.165,3.854c-0.804,1.678-1.222,3.1-1.295,4.255  C50.632,69.285,50.736,67.564,51.519,65.931z M52.843,72.578c-1.16-0.622-1-2.775,0.449-5.798c1.306-2.726,3.308-4.298,4.679-3.693  c0.622,0.5,1.062,1.256,1.249,2.208c0.25,1.27,0.035,2.703-0.604,4.037C57.346,71.981,54.787,73.395,52.843,72.578z"></path><path d="M38.466,74.377c0.171,0,0.337-0.088,0.431-0.245l19.756-33.398c0.141-0.238,0.062-0.545-0.176-0.686  c-0.238-0.139-0.544-0.062-0.686,0.176L38.035,73.622c-0.141,0.238-0.062,0.545,0.176,0.686  C38.291,74.354,38.379,74.377,38.466,74.377z"></path><path d="M60.454,40.048c-0.237-0.139-0.545-0.062-0.686,0.176L40.014,73.622c-0.141,0.238-0.062,0.545,0.176,0.686  c0.08,0.047,0.168,0.069,0.255,0.069c0.171,0,0.337-0.088,0.431-0.245L60.63,40.733C60.771,40.495,60.691,40.188,60.454,40.048z"></path></g>
</svg>
</g><g opacity="1" transform="rotate(0 165.9035 526.4124)">
<svg width="390.0371" height="80" x="165.9035" y="526.4124" version="1.1" preserveAspectRatio="none" viewBox="1.52 -34.36 169.07999999999998 34.68">
  <g transform="matrix(1 0 0 1 0 0)" class="companyName"><path id="id-D6z1nYkh8" d="M15.48 0L1.52 0L1.52-34.36L8.40-34.36L8.40-5.84L15.48-5.84L15.48 0Z M25.96 0L19.28 0L22.60-34.36L34.24-34.36L37.52 0L31 0L30.52-5.56L26.36-5.56L25.96 0ZM28.16-28.52L26.88-11.04L30-11.04L28.48-28.52L28.16-28.52Z M48.60 0L42.40 0L42.40-34.36L52.88-34.36L55.76-13.40L58.64-34.36L69.20-34.36L69.20 0L62.92 0L62.92-24.76L58.96 0L52.80 0L48.60-24.76L48.60 0Z M81.60 0L74.60 0L74.60-5.84L81.60-5.84L81.60 0Z M93.84 0L87.00 0L87.00-34.36L93.84-34.36L93.84-22.08L97.08-22.08L97.08-34.36L103.92-34.36L103.92 0L97.08 0L97.08-15.60L93.84-15.60L93.84 0Z M117.72 0.32Q113.48 0.32 111.42-2.08Q109.36-4.48 109.36-9.20L109.36-9.20L109.36-34.36L116.04-34.36L116.04-9.48Q116.04-7.84 116.36-6.92Q116.68-6 117.72-6L117.72-6Q118.76-6 119.08-6.90Q119.40-7.80 119.40-9.48L119.40-9.48L119.40-34.36L126.08-34.36L126.08-9.20Q126.08-4.48 124.02-2.08Q121.96 0.32 117.72 0.32L117.72 0.32Z M137.28 0L130.60 0L133.92-34.36L145.56-34.36L148.84 0L142.32 0L141.84-5.56L137.68-5.56L137.28 0ZM139.48-28.52L138.20-11.04L141.32-11.04L139.80-28.52L139.48-28.52Z M160.44 0L153.72 0L153.72-34.36L160.80-34.36L163.96-17.92L163.96-34.36L170.60-34.36L170.60 0L163.88 0L160.44-17.20L160.44 0Z"/></g>
</svg>
</g></svg></svg>