<svg version="1.1" preserveAspectRatio="none" xmlns="http://www.w3.org/2000/svg" width="500" height="500" viewBox="0 0 500 500"><rect width="100%" height="100%" fill="#E9E9E9" fill-opacity="1"/><svg viewBox="41.4793 204.296 484.2331 180" width="333" height="123.78335970837186" x="83.5px" y="188.1083px" xmlns="http://www.w3.org/2000/svg" xmlns:xlink="http://www.w3.org/1999/xlink" preserveAspectRatio="none"><defs></defs><style>.companyName {fill:#1e1e1e;fill-opacity:1;}.icon3-str {stroke:#848383;stroke-opacity:1;}.shape {fill:#F3F3F3;fill-opacity:1;}.shapeStroke-str {stroke:#1e1e1e;stroke-opacity:1;}</style><g opacity="1" transform="rotate(0 61.4793 224.296)">
<svg width="464.2331" height="160" x="61.4793" y="224.296" version="1.1" preserveAspectRatio="none" viewBox="0 0 464.2331 160">
  <defs><rect x="12.8" y="12.8" width="438.63309999999996" height="134.4" rx="0%" ry="0%" id="id-ZzOTVRhf1695655946228"></rect></defs><use class="shape shapeStroke-str" style="stroke-width:25.6;" xlink:href="#id-ZzOTVRhf1695655946228"></use>
</svg>
</g><g opacity="1" transform="rotate(0 41.4793 204.296)">
<svg width="464.2331" height="160" x="41.4793" y="204.296" version="1.1" preserveAspectRatio="none" viewBox="0 0 464.2331 160">
  <defs><rect x="2" y="2" width="460.2331" height="156" rx="0px" ry="0px" id="id-7KDWqqaq1695655946228"></rect></defs><use class="shape shapeStroke-str" style="stroke-width:4;" xlink:href="#id-7KDWqqaq1695655946228"></use>
</svg>
</g><g opacity="1" transform="rotate(0 91.4793 254.296)">
<svg width="364.2331" height="60" x="91.4793" y="254.296" version="1.1" preserveAspectRatio="none" viewBox="4.16 -28.92 179.48000000000002 29.560000000000002">
  <g transform="matrix(1 0 0 1 0 0)" class="companyName"><path id="id-D6z1nYkh8" d="M4.16-28.92L8.04-28.92L8.04-3.76L22.76-3.76L22.76 0L4.16 0L4.16-28.92Z M41.68-16.56L45.12-16.56L45.12 0L41.40 0L41.40-2.72Q40.52-1.56 38.84-0.58Q37.16 0.40 35.04 0.40L35.04 0.40Q32.68 0.40 30.78-0.62Q28.88-1.64 27.78-3.60Q26.68-5.56 26.68-8.28L26.68-8.28Q26.68-11 27.82-13.02Q28.96-15.04 30.90-16.14Q32.84-17.24 35.20-17.24L35.20-17.24Q37.32-17.24 38.88-16.32Q40.44-15.40 41.40-13.92L41.40-13.92L41.68-16.56ZM36.04-2.68Q38.08-2.68 39.54-3.82Q41-4.96 41.40-6.92L41.40-6.92L41.40-10.20Q40.92-11.96 39.40-13.06Q37.88-14.16 35.92-14.16L35.92-14.16Q34.44-14.16 33.18-13.44Q31.92-12.72 31.18-11.42Q30.44-10.12 30.44-8.48L30.44-8.48Q30.44-6.88 31.20-5.56Q31.96-4.24 33.24-3.46Q34.52-2.68 36.04-2.68L36.04-2.68Z M72.84-17.24Q75.24-17.24 76.66-15.88Q78.08-14.52 78.16-12.28L78.16-12.28L78.16 0L74.44 0L74.44-10.92Q74.32-13.84 71.80-14L71.80-14Q70.36-14 69.22-13.14Q68.08-12.28 67.44-10.88Q66.80-9.48 66.76-7.88L66.76-7.88L66.76 0L63 0L63-10.92Q62.88-13.84 60.28-14L60.28-14Q58.88-14 57.74-13.14Q56.60-12.28 55.96-10.86Q55.32-9.44 55.32-7.84L55.32-7.84L55.32 0L51.60 0L51.60-16.56L54.96-16.56L55.24-13.44Q56.20-15.24 57.86-16.24Q59.52-17.24 61.64-17.24L61.64-17.24Q63.64-17.24 65-16.30Q66.36-15.36 66.76-13.72L66.76-13.72Q67.80-15.36 69.40-16.30Q71-17.24 72.84-17.24L72.84-17.24Z M82.72-2.12Q82.72-3 83.36-3.64Q84-4.28 84.84-4.28L84.84-4.28Q85.60-4.28 86.26-3.64Q86.92-3 86.92-2.12L86.92-2.12Q86.92-1.20 86.28-0.60Q85.64 0 84.84 0L84.84 0Q84 0 83.36-0.60Q82.72-1.20 82.72-2.12L82.72-2.12Z M115.20-28.92L115.20 0L111.32 0L111.32-12.68L96.16-12.68L96.16 0L92.28 0L92.28-28.92L96.16-28.92L96.16-16.40L111.32-16.40L111.32-28.92L115.20-28.92Z M134.28-16.56L138-16.56L138 0L134.64 0L134.40-3.16Q133.56-1.48 131.80-0.42Q130.04 0.64 127.88 0.64L127.88 0.64Q125.60 0.64 124.14-0.74Q122.68-2.12 122.60-4.32L122.60-4.32L122.60-16.56L126.32-16.56L126.32-5.64Q126.40-4.24 127.14-3.42Q127.88-2.60 129.36-2.56L129.36-2.56Q130.72-2.56 131.84-3.38Q132.96-4.20 133.62-5.64Q134.28-7.08 134.28-8.84L134.28-8.84L134.28-16.56Z M158.04-16.56L161.48-16.56L161.48 0L157.76 0L157.76-2.72Q156.88-1.56 155.20-0.58Q153.52 0.40 151.40 0.40L151.40 0.40Q149.04 0.40 147.14-0.62Q145.24-1.64 144.14-3.60Q143.04-5.56 143.04-8.28L143.04-8.28Q143.04-11 144.18-13.02Q145.32-15.04 147.26-16.14Q149.20-17.24 151.56-17.24L151.56-17.24Q153.68-17.24 155.24-16.32Q156.80-15.40 157.76-13.92L157.76-13.92L158.04-16.56ZM152.40-2.68Q154.44-2.68 155.90-3.82Q157.36-4.96 157.76-6.92L157.76-6.92L157.76-10.20Q157.28-11.96 155.76-13.06Q154.24-14.16 152.28-14.16L152.28-14.16Q150.80-14.16 149.54-13.44Q148.28-12.72 147.54-11.42Q146.80-10.12 146.80-8.48L146.80-8.48Q146.80-6.88 147.56-5.56Q148.32-4.24 149.60-3.46Q150.88-2.68 152.40-2.68L152.40-2.68Z M178.24-17.20Q180.56-17.20 182.08-15.82Q183.60-14.44 183.64-12.24L183.64-12.24L183.64 0L179.88 0L179.88-10.96Q179.80-12.36 179.04-13.16Q178.28-13.96 176.76-14L176.76-14Q174.56-14 173.12-12.24Q171.68-10.48 171.68-7.76L171.68-7.76L171.68 0L167.96 0L167.96-16.56L171.32-16.56L171.56-13.36Q172.44-15.16 174.20-16.18Q175.96-17.20 178.24-17.20L178.24-17.20Z"/></g>
</svg>
</g></svg></svg>