<svg version="1.1" preserveAspectRatio="none" xmlns="http://www.w3.org/2000/svg" width="500" height="500" viewBox="0 0 500 500"><rect width="100%" height="100%" fill="#F7F4F2" fill-opacity="1"/><svg viewBox="139.4373 108.4491 364.7972 331.5823" width="333" height="302.68024507863544" x="83.5px" y="98.6599px" xmlns="http://www.w3.org/2000/svg" xmlns:xlink="http://www.w3.org/1999/xlink" preserveAspectRatio="none"><defs></defs><style>.companyName {fill:#161616;fill-opacity:1;}.icon1 {fill:#161616;fill-opacity:1;}.icon2 {fill:#E5B7D2;fill-opacity:1;}.icon3 {fill:#848282;fill-opacity:1;}.icon3-str {stroke:#848282;stroke-opacity:1;}</style><g opacity="1" transform="rotate(0 139.4373 350.0314)">
<svg width="364.7972" height="90" x="139.4373" y="350.0314" version="1.1" preserveAspectRatio="none" viewBox="1.9531 -29.5508 124.76559999999999 30.781299999999998">
  <g transform="matrix(1 0 0 1 0 0)" class="companyName"><path id="id-D6z1nYkh8" d="M17.40-29.32Q18.34-29.32 19.05-28.76Q19.77-28.20 19.77-27.11Q19.77-26.02 18.55-23.68Q17.34-21.35 15.64-18.92Q13.95-16.48 11.80-13.75L11.80-13.75Q8.40-9.41 5.27-5.96L5.27-5.96Q5.25-5.72 5.11-5.09Q4.96-4.45 4.96-3.81Q4.96-3.16 5.56-2.65Q6.15-2.13 7.03-2.13Q7.91-2.13 8.92-2.75Q9.92-3.38 10.66-4.14L10.66-4.14Q12.62-6.15 13.09-6.15Q13.55-6.15 13.55-4.73L13.55-4.73L13.55-4.34Q13.55-3.57 13.28-3.22L13.28-3.22Q11.64-1.21 9.59-0.22Q7.54 0.76 5.70 0.76Q3.87 0.76 2.91-0.36Q1.95-1.48 1.95-3.44L1.95-3.44Q1.95-7.25 3.99-12.39Q6.04-17.54 8.59-21.15L8.59-21.15Q14.36-29.32 17.40-29.32L17.40-29.32ZM16.52-26.07L16.52-26.07Q16.52-26.37 16.33-26.37L16.33-26.37Q15.64-26.37 12.73-22.46Q9.82-18.55 8.53-16.23Q7.23-13.91 6.07-10.39L6.07-10.39Q8.38-13.13 12.45-18.92Q16.52-24.71 16.52-26.07Z M26.43-14.84L26.43-14.84Q27.91-14.84 27.91-13.83L27.91-13.83Q27.91-13.28 27.66-13.03Q27.40-12.77 26.57-11.34Q25.74-9.90 24.74-7.67Q23.73-5.43 23.44-3.85L23.44-3.85Q23.38-3.65 23.38-3.30L23.38-3.30Q23.38-2.23 23.96-2.23Q24.55-2.23 25.35-2.78Q26.15-3.34 26.78-3.97Q27.40-4.61 28.00-5.27Q28.59-5.94 28.71-6.04Q28.83-6.13 29.06-6.13L29.06-6.13Q29.43-6.13 29.51-5.57Q29.59-5 29.59-4.39Q29.59-3.79 29.47-3.55L29.47-3.55Q28.91-2.44 26.98-0.88Q25.06 0.68 23.49 0.68Q21.91 0.68 21.17-0.27Q20.43-1.23 20.43-2.39Q20.43-3.55 20.82-4.43L20.82-4.43Q19.20-2.32 17.10-0.86Q15 0.61 13.67 0.61Q12.34 0.61 11.50-0.20L11.50-0.20Q10.43-1.19 10.43-2.96Q10.43-4.73 11.22-6.51Q12.01-8.30 13.30-9.78Q14.59-11.25 16.13-12.46L16.13-12.46Q19.38-15 22.11-15L22.11-15Q23.16-15 23.83-14.65Q24.49-14.30 24.67-13.77L24.67-13.77Q25.14-14.47 25.46-14.66Q25.78-14.84 26.43-14.84ZM23.83-12.68L23.83-12.68Q20.49-12.68 16.91-8.96L16.91-8.96Q15.64-7.64 14.58-5.78Q13.52-3.93 13.52-3.24Q13.52-2.56 13.91-2.56L13.91-2.56Q14.45-2.56 16.95-4.72Q19.45-6.88 20.27-7.89L20.27-7.89Q21.17-9.02 23.83-12.68Z M27.81 0.12L27.81 0.12L26.86 0.08L26.50 0.08Q26.31 0.02 26.08-0.16Q25.86-0.33 25.74-0.41Q25.63-0.49 25.63-0.69Q25.63-0.90 25.78-1.41L25.78-1.41Q29.59-9.79 33.14-14.80L33.14-14.80Q33.54-15.35 34.40-15.63Q35.27-15.92 36.09-15.92L36.09-15.92Q36.58-15.92 36.58-15.16L36.58-15.16Q36.58-14.94 36.43-14.58Q36.27-14.22 35.64-13.40Q35.02-12.58 34.16-11.52Q33.30-10.47 33.18-10.31L33.18-10.31Q35.86-13.09 38.02-14.44Q40.18-15.80 41.14-15.80Q42.11-15.80 42.63-15.24Q43.14-14.69 43.14-14.05Q43.14-13.42 43.06-13.00Q42.97-12.58 42.73-12.12Q42.50-11.66 42.33-11.34Q42.17-11.02 41.78-10.50Q41.39-9.98 41.24-9.79Q41.09-9.59 40.63-9.04Q40.18-8.50 40.14-8.44L40.14-8.44Q40.68-8.98 41.66-10.06Q42.64-11.13 43.31-11.86Q43.98-12.58 45-13.49Q46.02-14.39 46.89-14.96L46.89-14.96Q49.00-16.29 51.17-16.29L51.17-16.29Q51.91-16.29 52.42-15.82Q52.93-15.35 52.93-14.70Q52.93-14.04 51.35-11.57Q49.77-9.10 48.19-6.61Q46.62-4.12 46.62-3.48L46.62-3.48Q46.62-2.58 46.95-2.41Q47.29-2.25 47.75-2.29Q48.22-2.32 49.07-2.89Q49.92-3.46 50.59-4.06L50.59-4.06Q51.66-5.04 52.58-5.96L52.58-5.96Q52.77-6.13 53.01-6.13L53.01-6.13Q53.38-6.13 53.46-5.57Q53.54-5 53.54-4.39Q53.54-3.79 53.42-3.55L53.42-3.55Q52.85-2.46 50.92-0.88Q48.98 0.70 47.21 0.70L47.21 0.70Q46.99 0.70 46.89 0.68L46.89 0.68Q44.88 0.49 44.11-0.42Q43.34-1.33 43.34-2.58Q43.34-3.83 44.19-5.61Q45.04-7.38 46.05-8.83Q47.07-10.27 47.92-11.44Q48.77-12.60 48.77-12.70Q48.77-12.79 48.61-12.79L48.61-12.79Q48.01-12.79 45.92-10.84L45.92-10.84Q42.34-7.50 39.75-4.39L39.75-4.39Q39.06-3.57 36.50-0.23L36.50-0.23Q36.21 0.16 35.58 0.16Q34.94 0.16 34.26-0.09Q33.57-0.33 33.57-0.72L33.57-0.72Q33.57-0.92 36.68-6.20Q39.79-11.48 39.79-11.96Q39.79-12.44 39.21-12.44Q38.63-12.44 36.84-10.72L36.84-10.72Q31.89-6.00 29.18-1.33L29.18-1.33Q29.00-1.05 28.50-0.47Q27.99 0.12 27.81 0.12Z M53.87-0.20Q53.87-1.39 54.80-2.31Q55.74-3.24 56.64-3.24L56.64-3.24Q58.26-3.24 58.26-1.91L58.26-1.91Q58.26-0.82 57.34 0.21Q56.43 1.23 55.27 1.23L55.27 1.23Q53.87 1.23 53.87-0.20L53.87-0.20Z M78.61-5.76L78.61-5.76Q78.75-4.86 78.75-4.35Q78.75-3.83 78.56-3.45Q78.38-3.07 77.74-2.37Q77.11-1.68 76.23-0.98L76.23-0.98Q74.08 0.72 71.84 0.72L71.84 0.72Q68.61 0.72 68.61-2.13L68.61-2.13Q68.61-4.61 72.93-12.01L72.93-12.01Q73.09-12.29 73.14-12.40L73.14-12.40Q71.64-11.35 67.39-6.65Q63.14-1.95 61.74 0L61.74 0Q61.62 0.18 61.15 0.39Q60.68 0.61 60.42 0.61Q60.16 0.61 59.85 0.44Q59.55 0.27 59.47 0.27L59.47 0.27Q59.22 0.27 59.22 0.11Q59.22-0.06 59.91-1.69Q60.61-3.32 61.74-5.74L61.74-5.74Q64.84-12.42 70.98-23.13L70.98-23.13Q73.13-26.88 74.34-28.44L74.34-28.44Q75.20-29.55 77.23-29.55L77.23-29.55Q77.66-29.55 77.71-29.30Q77.77-29.04 77.77-28.75Q77.77-28.46 77.66-28.16L77.66-28.16L75.57-24.90Q69.36-15.21 66.21-8.85L66.21-8.85Q69.26-12.56 72.13-14.57L72.13-14.57Q73.91-15.84 74.79-15.84Q75.68-15.84 76.41-15.56Q77.13-15.27 77.13-14.20L77.13-14.20Q77.13-13.81 75.86-11.31L75.86-11.31Q72.05-3.81 72.05-2.98Q72.05-2.15 72.73-2.15L72.73-2.15Q73.73-2.15 75.80-4.08L75.80-4.08Q77.36-5.55 77.77-5.96L77.77-5.96Q78.01-6.13 78.20-6.13L78.20-6.13Q78.57-6.13 78.61-5.76Z M93.69-6.13L93.69-6.13Q94.06-6.13 94.14-5.57Q94.22-5 94.22-4.39Q94.22-3.79 94.10-3.55L94.10-3.55Q93.54-2.46 91.62-0.89Q89.71 0.68 87.99 0.68L87.99 0.68Q86.93 0.68 86.04 0.05Q85.14-0.59 85.14-2.17Q85.14-3.75 85.98-5.27L85.98-5.27Q81.13 0.80 78.38 0.80L78.38 0.80Q77.29 0.80 76.61 0.02Q75.94-0.76 75.94-1.59Q75.94-2.42 76.17-3.31Q76.41-4.20 76.67-4.90Q76.93-5.61 77.45-6.64Q77.97-7.68 78.22-8.14Q78.48-8.61 79.03-9.56Q79.59-10.51 80.50-12.11Q81.41-13.71 82.00-14.48Q82.60-15.25 83.16-15.26Q83.73-15.27 84.16-14.80Q84.59-14.34 84.59-14.04Q84.59-13.75 83.28-11.41L83.28-11.41Q79.41-4.41 79.41-3.26L79.41-3.26Q79.41-2.97 79.63-2.97L79.63-2.97Q80.57-2.97 84.30-7.03Q88.03-11.09 88.61-12.24Q89.20-13.38 89.76-14.16Q90.31-14.94 90.59-15.12L90.59-15.12Q91.43-15.66 92.75-15.70L92.75-15.70Q92.97-15.70 93.09-15.68Q93.20-15.66 93.36-15.35Q93.52-15.04 93.52-14.86L93.52-14.86Q93.34-14.32 91.96-11.95Q90.59-9.59 90.43-9.28L90.43-9.28Q88.13-4.51 88.13-3.07L88.13-3.07Q88.13-2.25 88.75-2.25L88.75-2.25Q89.88-2.40 91.48-4.06L91.48-4.06Q92.07-4.67 92.65-5.29Q93.22-5.92 93.36-6.03Q93.50-6.13 93.69-6.13Z M107.87-14.84L107.87-14.84Q109.36-14.84 109.36-13.83L109.36-13.83Q109.36-13.28 109.10-13.03Q108.85-12.77 108.02-11.34Q107.19-9.90 106.18-7.67Q105.18-5.43 104.88-3.85L104.88-3.85Q104.82-3.65 104.82-3.30L104.82-3.30Q104.82-2.23 105.41-2.23Q106.00-2.23 106.80-2.78Q107.60-3.34 108.22-3.97Q108.85-4.61 109.44-5.27Q110.04-5.94 110.16-6.04Q110.27-6.13 110.51-6.13L110.51-6.13Q110.88-6.13 110.96-5.57Q111.04-5 111.04-4.39Q111.04-3.79 110.92-3.55L110.92-3.55Q110.35-2.44 108.43-0.88Q106.50 0.68 104.93 0.68Q103.36 0.68 102.62-0.27Q101.88-1.23 101.88-2.39Q101.88-3.55 102.27-4.43L102.27-4.43Q100.64-2.32 98.54-0.86Q96.45 0.61 95.12 0.61Q93.79 0.61 92.95-0.20L92.95-0.20Q91.88-1.19 91.88-2.96Q91.88-4.73 92.67-6.51Q93.46-8.30 94.75-9.78Q96.04-11.25 97.58-12.46L97.58-12.46Q100.82-15 103.55-15L103.55-15Q104.61-15 105.27-14.65Q105.94-14.30 106.11-13.77L106.11-13.77Q106.58-14.47 106.90-14.66Q107.23-14.84 107.87-14.84ZM105.27-12.68L105.27-12.68Q101.93-12.68 98.36-8.96L98.36-8.96Q97.09-7.64 96.03-5.78Q94.96-3.93 94.96-3.24Q94.96-2.56 95.35-2.56L95.35-2.56Q95.90-2.56 98.40-4.72Q100.90-6.88 101.72-7.89L101.72-7.89Q102.62-9.02 105.27-12.68Z M119.45-3.01L119.45-3.01Q119.45-2.15 120.63-2.15L120.63-2.15Q121.25-2.15 122.20-2.77Q123.14-3.40 123.91-4.14L123.91-4.14Q125.94-6.15 126.21-6.15L126.21-6.15Q126.72-6.15 126.72-4.69Q126.72-3.22 125.80-2.68L125.80-2.68Q123.01-0.16 121.48 0.39L121.48 0.39Q120.63 0.68 119.59 0.66Q118.55 0.64 117.54-0.23Q116.52-1.11 116.52-2.37Q116.52-3.63 117.19-5.23Q117.85-6.84 118.54-7.98Q119.24-9.12 120.25-10.63Q121.27-12.15 121.33-12.52L121.33-12.52L121.29-12.56Q120.64-12.50 118.10-10.02Q115.55-7.54 113.89-5.70Q112.23-3.87 109.92-0.80L109.92-0.80Q109.28 0.04 108.87 0.04Q108.46 0.04 107.76-0.22Q107.07-0.49 106.91-0.61Q106.76-0.72 106.76-0.96Q106.76-1.19 106.89-1.53Q107.03-1.88 107.16-2.10Q107.29-2.32 107.58-2.79Q107.87-3.26 108.74-4.78Q109.61-6.29 111.41-9.30Q113.20-12.30 113.55-12.93L113.55-12.93Q114.30-14.22 114.77-14.80L114.77-14.80Q115.64-15.92 117.73-15.92L117.73-15.92Q118.20-15.92 118.20-15.33L118.20-15.33Q118.20-14.41 116.50-11.88L116.50-11.88L115.68-10.64Q119.06-14.39 121.39-15.39L121.39-15.39Q122.52-15.88 123.43-15.88Q124.34-15.88 124.87-15.39Q125.41-14.90 125.41-14.31Q125.41-13.71 125-12.88Q124.59-12.05 124.17-11.40Q123.75-10.74 123.07-9.75Q122.38-8.75 122.32-8.66Q122.27-8.57 122.02-8.19Q121.78-7.81 121.66-7.64Q121.54-7.46 121.27-7.02Q121.00-6.58 120.83-6.29Q120.66-6.00 120.42-5.57Q120.18-5.14 120.03-4.82Q119.88-4.51 119.73-4.14L119.73-4.14Q119.45-3.46 119.45-3.01Z"/></g>
</svg>
</g><g opacity="1" transform="rotate(0 248.8765 108.4491)">
<svg width="145.9188" height="211.5823" x="248.8765" y="108.4491" version="1.1" preserveAspectRatio="none" viewBox="5.999999523162842 1 20 29">
  <g transform="matrix(1 0 0 1 0 0)" class="icon1"><g transform="translate(0,-1020.3622)"><g><path style="color:#000000;font-style:normal;font-variant:normal;font-weight:normal;font-stretch:normal;font-size:medium;line-height:normal;text-indent:0;text-align:start;text-decoration:none;text-decoration-line:none;text-decoration-style:solid;text-decoration-color:#000000;letter-spacing:normal;word-spacing:normal;text-transform:none;direction:ltr;block-progression:tb;writing-mode:lr-tb;baseline-shift:baseline;text-anchor:start;white-space:normal;clip-rule:nonzero;display:inline;overflow:visible;visibility:visible;opacity:1;isolation:auto;mix-blend-mode:normal;color-interpolation:sRGB;color-interpolation-filters:linearRGB;solid-color:#000000;solid-opacity:1;fill-rule:nonzero;stroke-width:1;stroke-linecap:round;stroke-linejoin:round;stroke-miterlimit:4;stroke-dasharray:none;stroke-dashoffset:0;color-rendering:auto;image-rendering:auto;shape-rendering:auto;text-rendering:auto;enable-background:accumulate" d="m 22.03125,8 0,-1.5 c 0,-2.1639728 -1.51821,-3.9751904 -3.5625,-4.40625 C 17.6771,1.4161863 16.656049,1 15.53125,1 13.036452,1 11,3.0148002 11,5.5 L 11,8 m 1,0 0,-2.5 C 12,3.5545002 13.570157,2 15.53125,2 c 0.325683,0 0.639232,0.044584 0.9375,0.125 C 14.486164,2.60135 13,4.3796674 13,6.5 L 13,8 m 1,0 0,-1.5 C 14,4.5545002 15.570157,3 17.53125,3 c 0.170171,0 0.336621,0.0086 0.5,0.03125 0.635233,0.6318125 1,1.496 1,2.46875 l 0,2.5 m 1,0 0,-2.5 c 0,-0.6213 -0.114768,-1.2116313 -0.34375,-1.75 0.825203,0.6382201 1.34375,1.6203063 1.34375,2.75 l 0,1.5 M 6.5,9 8.09375,9 C 8.0397454,9.15394 8,9.3286875 8,9.5 7.99835,9.723 7.8496744,9.9738 7.53125,10.125 c -0.3203713,0.1521 -0.7421287,0.1521 -1.0625,0 C 6.1503256,9.9716 6.0016473,9.723 6,9.5 6,9.4286 6.0066913,9.3727625 6.03125,9.3125 6.1049261,9.1317125 6.2857636,9 6.5,9 Z m 3,0 c 0.020813,0.0013 0.041687,0.0013 0.0625,0 L 9.59375,9 13,9 13,10.59375 C 12.41498,10.798934 12,11.348854 12,12 c 0,0.8225 0.677495,1.5 1.5,1.5 0.822505,0 1.5,-0.6775 1.5,-1.5 0,-0.651146 -0.41498,-1.201066 -1,-1.40625 L 14,9 l 7.03125,0 0,1.59375 C 20.431914,10.790716 20,11.338573 20,12 c 0,0.8225 0.677495,1.5 1.5,1.5 0.822505,0 1.5,-0.6775 1.5,-1.5 0,-0.640865 -0.398017,-1.193334 -0.96875,-1.40625 L 22.03125,9 25.5,9 C 25.785649,9 26,9.2144 26,9.5 l 0,20.5 -0.5,0 -16,0 C 9.4285879,30 9.3727648,29.993305 9.3125,29.96875 9.1317057,29.895086 9,29.714275 9,29.5 l 0,-4.25 0,-0.09375 0,-7.5 L 9,14.5 9,9.5 C 9,9.4286 9.0066913,9.3727625 9.03125,9.3125 9.1049261,9.1317125 9.2857636,9 9.5,9 Z M 6,11 c 0.013117,0.0066 0.017958,0.02494 0.03125,0.03125 0.6078308,0.2885 1.3296692,0.2885 1.9375,0 C 7.9820418,11.024978 7.9868831,11.006546 8,11 l 0,3.5 0,3.15625 0,0.15625 0,7.34375 0,0.09375 0,4.25 c 0,0.171333 0.039745,0.346054 0.09375,0.5 L 6.5,30 C 6.2143514,30 6,29.7857 6,29.5 L 6,26 6,18.46875 6,14.5 Z m 7.5,0.5 c 0.282065,0 0.5,0.218 0.5,0.5 0,0.2821 -0.217935,0.5 -0.5,0.5 -0.282065,0 -0.5,-0.2179 -0.5,-0.5 0,-0.282 0.217935,-0.5 0.5,-0.5 z m 8,0 c 0.282065,0 0.5,0.218 0.5,0.5 0,0.2821 -0.217935,0.5 -0.5,0.5 -0.282065,0 -0.5,-0.2179 -0.5,-0.5 0,-0.282 0.217935,-0.5 0.5,-0.5 z" transform="translate(-5e-7,1020.3622)"></path></g></g></g>
</svg>
</g></svg></svg>